<svg
      xmlns="http://www.w3.org/2000/svg"
      viewBox="0 0 24 24"
    >
      <path
        fill="currentColor"
        d="M17.435 2.065a2 2 0 0 1 1.732 1l3.464 6a2 2 0 0 1 0 2l-3.464 6a2 2 0 0 1-1.732 1H6.565a2 2 0 0 1-1.732-1l-3.464-6a2 2 0 0 1 0-2l3.464-6a2 2 0 0 1 1.732-1h10.87ZM8.353 7.647a.5.5 0 0 0-.706.706L10.294 11H8.5a2.5 2.5 0 0 0 0 5h3.147l-2.647 2.647a.5.5 0 1 0 .706.706L13.707 15H15.5a2.5 2.5 0 0 0 0-5H12.353l2.647-2.647a.5.5 0 0 0-.706-.706L10.293 9H8.353Z"
      />
    </svg>
